<svg xmlns="http://www.w3.org/2000/svg" version="1.1" viewBox="0 0 520 206">
  <path fill="#125A9B" fill-opacity=".1" stroke="#125A9B" stroke-linecap="round" stroke-linejoin="round" stroke-width="2" d="M7.67 106.83h128.82V169H7.67z"/>
  <g fill="none" stroke="#125A9B" stroke-linecap="round" stroke-linejoin="round" stroke-width=".75">
    <path d="M11.65 161.2v7.61M15.54 161.2v7.61M19.43 161.2v7.61M23.32 158.77v10.04M27.21 161.2v7.61M31.09 161.2v7.61M34.98 161.2v7.61M38.87 152.69v16.12M42.76 161.2v7.61M46.65 161.2v7.61M50.54 161.2v7.61M54.43 158.77v10.04M58.31 161.2v7.61M62.2 161.2v7.61M66.09 161.2v7.61M69.98 145.4v23.41M132.14 145.4v23.41M73.86 161.2v7.61M77.75 161.2v7.61M81.64 161.2v7.61M85.52 158.77v10.04M89.41 161.2v7.61M93.3 161.2v7.61M97.19 161.2v7.61M101.08 152.69v16.12M104.97 161.2v7.61M108.86 161.2v7.61M112.74 158.77v10.04M116.63 161.2v7.61M120.52 161.2v7.61M124.41 161.2v7.61M128.3 161.2v7.61"/>
  </g>
  <path fill="#125A9B" d="M67.35 153.05h-.85v-5.08h-1.84v-.68c.97 0 1.85-.26 2.04-1.33h.65v7.09z"/>
  <g fill="#125A9B">
    <path d="M12.64 145.15h-.73v-.9h.73v.9zm-.73.8h.73v4.42h-.73v-4.43zM13.77 145.94h.69v.7h.01c.31-.54.8-.8 1.44-.8 1.16 0 1.52.67 1.52 1.62v2.9h-.72v-2.99c0-.54-.35-.89-.9-.89-.88 0-1.31.6-1.31 1.39v2.5h-.73v-4.43zM21.54 147.37c-.11-.56-.5-.89-1.1-.89-1.05 0-1.38.83-1.38 1.73 0 .82.37 1.62 1.3 1.62.7 0 1.12-.41 1.21-1.08h.75c-.17 1.08-.84 1.72-1.96 1.72-1.35 0-2.07-.94-2.07-2.26 0-1.33.69-2.37 2.1-2.37 1 0 1.8.47 1.9 1.52h-.75zM23.13 144.26h.73v2.34h.02c.24-.54.86-.76 1.4-.76 1.16 0 1.52.67 1.52 1.62v2.91h-.73v-3c0-.53-.34-.89-.9-.89-.88 0-1.31.6-1.31 1.4v2.5h-.73v-6.12zM31.67 148.97c-.2.97-.9 1.5-1.9 1.5-1.4 0-2.07-.97-2.11-2.33 0-1.32.87-2.3 2.08-2.3 1.56 0 2.04 1.47 2 2.54h-3.31c-.03.77.4 1.45 1.37 1.45.6 0 1.02-.3 1.15-.86h.72zm-.7-1.24a1.27 1.27 0 0 0-1.28-1.25c-.76 0-1.21.58-1.26 1.25h2.54zM32.94 148.97c.03.65.6.86 1.19.86.45 0 1.07-.1 1.07-.66s-.72-.66-1.45-.82c-.72-.16-1.44-.4-1.44-1.25 0-.9.88-1.26 1.65-1.26.97 0 1.75.31 1.81 1.39h-.73c-.05-.57-.54-.75-1.02-.75-.44 0-.95.12-.95.57 0 .52.78.6 1.45.77.73.16 1.45.4 1.45 1.26 0 1.05-.98 1.4-1.88 1.4-1 0-1.84-.4-1.88-1.5h.73z"/>
  </g>
  <path fill="#125A9B" d="M32.8 140.11h-.86v-5.08H30.1v-.68c.97 0 1.85-.26 2.04-1.33h.65v7.09zM54.28 135.53c-.07-1.44.78-2.5 2.28-2.5 1.24 0 2.22.71 2.22 2.03 0 1.25-.84 1.88-1.72 2.43-.89.54-1.82 1-1.99 1.87h3.64v.75h-4.63c.14-1.68 1-2.28 2-2.9 1.2-.74 1.8-1.18 1.8-2.16 0-.77-.62-1.27-1.37-1.27-.99 0-1.4.9-1.38 1.76h-.85zM80.62 136.06l.37.01c.72 0 1.35-.39 1.35-1.16 0-.74-.54-1.14-1.26-1.14-.93 0-1.33.71-1.33 1.54h-.85c.05-1.35.77-2.29 2.18-2.29 1.23 0 2.16.6 2.16 1.9 0 .62-.44 1.16-.98 1.41v.02c.86.2 1.28.87 1.28 1.72 0 1.42-1.1 2.16-2.44 2.16-1.43 0-2.38-.85-2.35-2.31h.85c.03.92.54 1.56 1.5 1.56.84 0 1.54-.51 1.54-1.37 0-.89-.67-1.36-1.5-1.36-.17 0-.35.01-.51.03v-.72zM107.24 137.7h.96v.75h-.96v1.66h-.8v-1.66h-3.1v-.82l3.22-4.6h.68v4.67zm-.8 0v-3.47h-.02l-2.35 3.47h2.37zM132.36 133.9h-2.86l-.38 2.03.02.02c.31-.35.84-.5 1.32-.5 1.26 0 2.29.8 2.29 2.42 0 1.2-.83 2.36-2.48 2.36-1.23 0-2.23-.75-2.26-2.03h.85c.05.73.64 1.28 1.49 1.28.81 0 1.5-.55 1.5-1.68 0-.94-.65-1.6-1.6-1.6-.54 0-.99.26-1.32.66l-.73-.04.66-3.68h3.5v.75z"/>
  <g fill="#125A9B">
    <path d="M14.87 129.55c-.1-.56-.5-.88-1.1-.88-1.05 0-1.37.83-1.37 1.73 0 .8.37 1.61 1.3 1.61.7 0 1.11-.4 1.2-1.08h.75c-.16 1.08-.84 1.72-1.95 1.72-1.35 0-2.07-.94-2.07-2.26 0-1.32.68-2.37 2.09-2.37 1 0 1.8.47 1.9 1.53h-.75zM16.47 128.13h.68v.65h.02c.33-.5.82-.76 1.43-.76.54 0 1.04.22 1.22.76.3-.47.82-.76 1.38-.76.89 0 1.48.37 1.48 1.29v3.24h-.73v-2.9c0-.55-.15-.98-.86-.98-.7 0-1.15.44-1.15 1.13v2.75h-.73v-2.9c0-.57-.18-.98-.83-.98-.87 0-1.18.8-1.18 1.13v2.75h-.73v-4.42z"/>
  </g>
  <path fill="#125A9B" d="M124.16 148.47c-.07-1.44.78-2.5 2.28-2.5 1.24 0 2.22.71 2.22 2.03 0 1.25-.84 1.88-1.72 2.43-.89.54-1.82.99-1.99 1.87h3.64v.75h-4.63c.14-1.68 1-2.28 2-2.9 1.19-.74 1.8-1.18 1.8-2.16 0-.77-.62-1.28-1.37-1.28-.99 0-1.4.91-1.38 1.76h-.85z"/>
  <g fill="none" stroke="#125A9B" stroke-linecap="round" stroke-linejoin="round" stroke-width=".75">
    <path d="M7.67 131.41v-24.47M7.67 106.94v5.61M10.12 106.94v5.61M12.56 106.94v5.61M15.01 106.94v5.61M17.46 106.94v5.61M22.35 106.94v5.61M19.91 106.94v13.65M24.8 106.94v5.61M27.25 106.94v5.61M29.7 106.94v5.61M32.14 106.94v5.61"/>
  </g>
  <g fill="none" stroke="#125A9B" stroke-linecap="round" stroke-linejoin="round" stroke-width=".75">
    <path d="M32.13 131.41v-24.47M34.58 106.94v5.61M37.03 106.94v5.61M39.48 106.94v5.61M41.92 106.94v5.61M46.82 106.94v5.61M44.37 106.94v13.65M49.26 106.94v5.61M51.71 106.94v5.61M54.16 106.94v5.61"/>
  </g>
  <g fill="none" stroke="#125A9B" stroke-linecap="round" stroke-linejoin="round" stroke-width=".75">
    <path d="M81.06 106.94v24.47M56.59 131.41v-24.47M59.04 106.94v5.61M61.49 106.94v5.61M63.94 106.94v5.61M66.39 106.94v5.61M71.28 106.94v5.61M68.83 106.94v13.65M73.73 106.94v5.61M76.17 106.94v5.61M78.62 106.94v5.61M81.06 106.94v5.61"/>
  </g>
  <g fill="none" stroke="#125A9B" stroke-linecap="round" stroke-linejoin="round" stroke-width=".75">
    <path d="M105.54 106.94v24.47M81.07 131.41v-24.47M83.52 106.94v5.61M85.97 106.94v5.61M88.41 106.94v5.61M90.86 106.94v5.61M95.75 106.94v5.61M93.31 106.94v13.65M98.2 106.94v5.61M100.65 106.94v5.61M103.09 106.94v5.61M105.54 106.94v5.61"/>
  </g>
  <g fill="none" stroke="#125A9B" stroke-linecap="round" stroke-linejoin="round" stroke-width=".75">
    <path d="M81.05 106.94v5.61M83.5 106.94v5.61M85.95 106.94v5.61M88.39 106.94v5.61M90.84 106.94v5.61M95.74 106.94v5.61M93.29 106.94v13.65M98.19 106.94v5.61M100.63 106.94v5.61M103.08 106.94v5.61M105.53 106.94v5.61"/>
  </g>
  <g fill="none" stroke="#125A9B" stroke-linecap="round" stroke-linejoin="round" stroke-width=".75">
    <path d="M107.96 106.94v5.61M110.41 106.94v5.61M112.86 106.94v5.61M115.31 106.94v5.61M120.19 106.94v5.61M117.75 106.94v13.65M122.65 106.94v5.61M125.1 106.94v5.61M127.54 106.94v5.61M129.99 106.94v5.61"/>
  </g>
  <g fill="none" stroke="#125A9B" stroke-linecap="round" stroke-linejoin="round" stroke-width=".75">
    <path d="M129.98 131.41v-24.47M132.43 106.94v5.61M134.88 106.94v5.61"/>
  </g>
  <g>
    <path fill="#427B5B" fill-opacity=".1" stroke="#427B5B" stroke-linecap="round" stroke-linejoin="round" stroke-miterlimit="2" stroke-width="2" d="M217.06 55.71c1.64-.2 3.62 1.57 5.24 1.23 1.37.66 1.55 1.9 2.8 2.52 1.63.8 3.63.83 4.99 2.2.7.72 1.77.56 2.53 1.34.76.92 1.9-.86 2.9-.46 2.95 1.35 7.09 1.83 10.28 2.8 2.98.91 6.4 1.95 9.16 3.3 3.16 1.8 13.09 7.37 10.64 11.93 1.15 2.63-.72 3.62 2.54 3.39.99-.07 2.7-1.17 3.35-.04 1.02 1.77 1.27 2.89 1.63 4.95.1.56.61 1.38 1.35 1.1.15.15 1.18 1.48 1.19 1.48 1.7.72 3.26 2.82 5.3 2.82 1.06-.01 3.93.74 3.5 2.2-.35 1.26-.44 2.23-1.22 3.4-.64.94-2.41 1.9-2.78 2.94-.55 1.56-3.44 2.97-4.43 4.46a7.19 7.19 0 0 1-3.65 2.73c-.66.23-2.8 1.07-3 1.9-.26 1.14-3.35 1.63-3.8 2.48-1.35 2.15-6.9-.59-7.84 1.14-.6 0-3.13 2.48-3.07 3.12.32 1.32-4.27 2.05-4.64 3.79-1.6 2.02-4.66 2.46-5.76 4.9-1.18 2.57-1.45 5.81-2.7 8.13a4.92 4.92 0 0 1-1.55 1.09c.1.89-1.5 3.25-2.46 3.46-1.49.34-1.3-.77-2.4-1.79a13.43 13.43 0 0 1-3.93-1.62c-1.72-1.4-3.28-1.52-5.39-1.77-2.21-.69-1.67-.9-3.08-2.45-1.57-1.71-1.12-3.03-2-4.8.01-2.36.07-4.93.02-7.4-.03-1.7 1.21-5.85-.66-7.14-.18-1.56-2.3-3.13-2.12-4.93-.3-.54.08-1.8-.72-1.7-.79.12-1.5-.64-1.84-1.07.31-.45-.32-4.6-1.29-5.31-.3-3.4-3.06-1.89-4.19-3.97-.76-1.4-1.06-2.83-2.17-4.26-1.74-2.23 2.86-5.72 2.9-7.59.38.72 2.03-2.14 3.38-1.64 1.14.43 1.44-3.52 2.33-4.19-.32-.75 1.43-2.68 1.89-3.37.2-.3.89-.68 1.17-.98.34-.36-.14-1.15.05-1.33.09.11-.18-2.5.05-1.65-.31-1.16-2.31-2.48-3.09-3.35a11.92 11.92 0 0 1-2.65-5.75c-.39-2.53-.52-6.35 3.24-6.24"/>
    <path d="M235.16 163.71h.8v.76h.02a1.9 1.9 0 0 1 1.67-.88c.63 0 1.2.25 1.42.88.35-.55.96-.88 1.62-.88 1.03 0 1.72.43 1.72 1.5v3.79h-.85v-3.39c0-.64-.17-1.15-1-1.15-.82 0-1.35.52-1.35 1.32v3.22h-.85v-3.39c0-.67-.21-1.15-.97-1.15-1.01 0-1.38.93-1.38 1.32v3.22h-.85v-5.17zM244.59 162.78h-.85v-1.04h.85v1.04zm-.85.93h.85v5.17h-.85v-5.17zM245.96 161.74h.85v7.14h-.85v-7.14zM252.54 167.24c-.23 1.14-1.05 1.76-2.21 1.76-1.65 0-2.43-1.14-2.48-2.72 0-1.55 1.02-2.69 2.43-2.69 1.83 0 2.39 1.71 2.34 2.96h-3.87c-.03.9.48 1.7 1.6 1.7.7 0 1.2-.34 1.35-1.01h.84zm-.82-1.44a1.49 1.49 0 0 0-1.5-1.46c-.88 0-1.41.67-1.47 1.46h2.97zM254.02 167.25c.03.76.69 1 1.39 1 .53 0 1.25-.12 1.25-.77 0-.66-.84-.77-1.7-.96-.83-.19-1.68-.47-1.68-1.46 0-1.04 1.03-1.47 1.93-1.47 1.14 0 2.05.36 2.12 1.62h-.85c-.06-.66-.64-.87-1.2-.87-.51 0-1.1.14-1.1.66 0 .6.9.7 1.69.9.85.19 1.69.47 1.69 1.47 0 1.23-1.15 1.63-2.2 1.63-1.16 0-2.14-.48-2.19-1.75h.85zM207.75 150.32c2.22 0 2.36 2.04 2.36 3.6s-.14 3.6-2.36 3.6c-2.22 0-2.36-2.04-2.36-3.6s.14-3.6 2.36-3.6zm0 6.45c1.45 0 1.46-1.8 1.46-2.85s-.01-2.85-1.46-2.85-1.46 1.8-1.46 2.85c0 1.06 0 2.85 1.46 2.85zM244.12 156.25h.96v.75h-.96v1.65h-.8V157h-3.1v-.82l3.22-4.61h.68v4.68zm-.8 0v-3.47h-.02l-2.36 3.47h2.38zM248.27 151.57c2.22 0 2.36 2.04 2.36 3.6s-.14 3.6-2.36 3.6-2.36-2.04-2.36-3.6.15-3.6 2.36-3.6zm0 6.45c1.45 0 1.46-1.8 1.46-2.85s-.01-2.85-1.46-2.85-1.46 1.8-1.46 2.85c0 1.06.01 2.85 1.46 2.85zM280.72 150.32c1.55 0 2.15.9 2.15 1.8 0 .64-.4 1.22-.98 1.48.85.27 1.26.89 1.26 1.77 0 1.36-1.03 2.15-2.35 2.15-1.35 0-2.4-.7-2.4-2.15 0-.84.44-1.5 1.23-1.77a1.6 1.6 0 0 1-.99-1.47c0-1.17 1-1.81 2.08-1.81zm.08 6.45c.86 0 1.45-.59 1.45-1.38 0-.77-.66-1.35-1.46-1.35-.84 0-1.5.54-1.5 1.36 0 .85.63 1.37 1.51 1.37zm0-3.48c.67 0 1.17-.41 1.17-1.13 0-.71-.5-1.1-1.19-1.1-.68 0-1.23.39-1.23 1.1 0 .78.55 1.13 1.25 1.13zM286.33 150.32c2.22 0 2.36 2.04 2.36 3.6s-.14 3.6-2.36 3.6-2.35-2.04-2.35-3.6.13-3.6 2.35-3.6zm0 6.45c1.45 0 1.46-1.8 1.46-2.85s0-2.85-1.46-2.85-1.46 1.8-1.46 2.85c0 1.06.01 2.85 1.46 2.85z"/>
    <g>
      <path d="M207.49 143.92h19.12v1.88h-19.12z"/>
      <path d="M227 146.03h-19.9v-2.33H227v2.33zm-19.12-.45h18.35v-1.43h-18.35v1.43z"/>
      <g>
        <path d="M207.1 143.92h.77v3.71h-.77z"/>
      </g>
    </g>
    <g>
      <path fill="#FFF" d="M226.66 143.92h19.13v1.88h-19.13z"/>
      <path d="M246.16 146.03h-19.89v-2.33h19.9v2.33zm-19.12-.45h18.35v-1.43h-18.35v1.43z"/>
      <g>
        <path d="M226.27 143.92h.77v3.71h-.77z"/>
      </g>
    </g>
    <g>
      <path d="M245.78 143.92h19.12v1.88h-19.12z"/>
      <path d="M265.3 146.03h-19.9v-2.33h19.9v2.33zm-19.13-.45h18.35v-1.43h-18.35v1.43z"/>
      <g>
        <path d="M245.4 143.92h.77v3.71h-.77z"/>
      </g>
    </g>
    <g>
      <path fill="#FFF" d="M264.91 143.92h19.12v1.88h-19.12z"/>
      <path d="M284.42 146.03h-19.9v-2.33h19.9v2.33zm-19.12-.45h18.35v-1.43H265.3v1.43z"/>
      <g>
        <path d="M264.52 143.92h.77v3.71h-.77z"/>
      </g>
    </g>
    <g>
      <path d="M283.65 143.92h.77v3.71h-.77z"/>
    </g>
  </g>
  <g>
    <path fill="#C8290D" fill-opacity=".8" d="M424.01 41.86c.37-.4.03-.99.04-1.47.01-.37.23-.59.26-.92.05-.64-.15-1.6-.52-1.9-.18-.17-.4-.23-.48-.45-.18-.58-.82-1.16-1.47-1.14-.1 0-.34.08-.5 0-.1-.03-.3-.54-.39-.7-.23-.47-.88-.87-1.09-1.17-.04.22.13.48.07.55-.12.16-.4-.9-.88-.92.24.15.29.75.2.65a3.16 3.16 0 0 0-.72-.57c-.35-.13-.84-.2-1.24-.22a9.4 9.4 0 0 0-2.13.07c-.59.12-1.15.31-1.8.37-1.27.1-2.52.07-3.34.52.14.12.34.06.33.25-.64-.05-1.15.22-1.25.58.33-.39 1.26-.38.7.04-.28.2-.64.32-.74.59.22-.11.44-.16.55 0 .09.12-.43.43-.29.77.15-.23.4-.27.7-.2.22.06.47.36.47.46 0 .03-.38.5-.51.7a10.38 10.38 0 0 0-1.29 2.39c-.12.39.04.84-.03 1.13-.06.2-.27.43-.45.62-.17.2-.32.4-.47.6-.25.3-.86.83-.89 1.28-.02.28.15.59.26.66.18.1.62.06.77.25.07.09.1.28.11.4.02.4-.25.92-.22 1.18.02.22.33.34.33.48 0 .03-.15.15-.19.22-.21.56.29.55.34.88.02.18-.17.41-.23.63-.16.68.02 1.35.44 1.58.74.4 1.82.05 2.43.44.14.08.27.3.36.51.28.6.32 1.4.52 2.1.09.3.27.66.37.95.14.43.12.31-.37.33-.4.02-1.1.07-1.29.26-.22.21-.18.9-.22 1.35-.04.6-.02 1.23-.07 1.55-.04.22-.19.7-.37.77-.4.15-1.03-.27-1.54-.07-.1.03-.4.5-.44.66-.05.2.01.46 0 .66a5.86 5.86 0 0 1-.3 1.76c-.23.41-.5.82-.77 1.29-.23.4-.59.8-.8 1.28-.23.5-.38 1.12-.56 1.73-.18.6-.35 1.22-.4 1.9-.1 1.4-.04 2.92-.04 4.48 0 1.76-.33 3.53-.51 5.33-.1.92-.07 1.85-.1 2.79-.07 1.42-.52 2.72-.52 4.22 0 1.27.16 2.7.07 3.93-.05.69-.12 1.25-.26 1.8-.13.52-.35 1-.52 1.54a8.9 8.9 0 0 0-.18 2.24c0 .8.06 1.6 0 2.35-.1 1.54-.55 3-.66 4.52-.05.63.05 1.46 0 2.24-.03.42-.16 1.38-.07 1.5.11.18 1.85.47 2.27.6.14.04.71.12.77.22.04.05.03.55.08.88.47 3.8.65 7.86 1.2 11.45.24 1.48.44 2.96.63 4.45.23 1.83.68 3.49 1 5.17.17.94.14 1.9.4 2.72.22.74.74 1.68 1.13 2.31.16.27.38.51.44.74.22.8.08 1.74-.03 2.5-.12.8-.33 1.59-.37 2.35-.06 1.25.44 1.96.81 2.97.15.43.24.87.37 1.32.12.43.3.84.43 1.25.16.44.18.93.3 1.4.11.45.27.87.37 1.32.5 2.33.52 5.07 1.06 7.3.1.4.25.83.3 1.22.04.37-.02.85.07 1.21.06.28.26.56.44.85.14.22.47.68.47.84 0 .21-.74 1.07-3.1 1.45-1.1.19-2.35.24-3.43.52a1.8 1.8 0 0 0-.6.31c-.32.3-.28.63-.36 1.1-.01.09-.1.18-.1.3-.03.12-.04.33 0 .44.26.93 2.76 1.35 3.5 1.4.52.05 1.49.07 1.49.07.03.07-.15.42-.23.58-.08.18-.24.4-.25.56-.02.23.13.32.1.43 0 .06-.3.36-.47.52-.87.81-2.02 1.44-3.02 2.1-.38.25-.87.57-1.28.77-.34.15-.62.17-.84.29-.42.23-.4.45-.67.81-.14.19-.3.26-.36.4-.66 1.78 2.23 2.36 3.33 2.6 1.7.38 3.56.3 5.26-.03.61-.11 1.27-.34 1.8-.51.7-.23 1.02-.43 1.55-.82.32-.23.67-.46.88-.66.26-.24.45-.64.73-.7.25-.05.68.1.95.08.5-.04 1.05-.42 1.55-.66.36-.19 1.22-.45 1.4-.8.05-.12.06-.33.1-.52.1-.45.23-.87.18-1.44-.03-.4-.24-.76-.21-1.1.02-.28.16-.26.21-.62.05-.3-.1-.92.04-1.03.08-.07.76-.03 1.06-.04.43 0 .8-.02 1.07-.07.43-.08 1.5-.3 1.61-.66.08-.23-.04-.5 0-.77.03-.2.16-.4.2-.63a4.6 4.6 0 0 0 0-.77c-.02-.17-.1-.37-.08-.48.02-.12.2-.22.22-.32.03-.18-.08-.5-.11-.77-.1-.87-.24-1.7-.33-2.43-.07-.54-.08-1.1-.19-1.62-.1-.52-.3-1.04-.29-1.54.01-1.82-.48-3.76-.77-5.54-.15-.9-.2-1.8-.33-2.68-.18-1.27-.52-2.36-.7-3.49-.24-1.55-.57-3.02-.84-4.56-.23-1.26-.57-2.55-.77-3.85-.07-.47-.2-.95-.19-1.36.01-.7.3-1.32.33-1.98.04-.82-.1-1.74-.15-2.42-.02-.46.03-.9 0-1.32-.07-.91-.13-1.7-.29-2.5-.08-.4-.23-.84-.23-1.22.02-.46.24-1.02.34-1.54.1-.57.1-1.16.18-1.72.1-.76.51-1.47.63-2.2.15-.99.14-2.25.14-3.46 0-.3-.02-.84.08-1.06.1-.24.48-.36.65-.55.83-.94.95-3 1.4-4.34.17-.5.45-.9.55-1.36.05-.22.05-.55.08-.91.01-.24.02-.82.1-.92.07-.09.43-.14.52-.19.45-.23.47-.71.51-1.35.1-1.72.08-2.96.66-4.26.08-.18.23-.3.3-.52.2-.64.14-1.64.14-2.68 0-1.69-.04-3.05-.1-4.51-.01-.2-.1-.42-.04-.56.05-.11.4-.23.51-.3.58-.28.85-.46 1.36-.76 1.61-.95 3.22-2.01 4.3-3.6.3-.46.66-.9.9-1.4.24-.47.26-.95.23-1.47a36.97 36.97 0 0 0-.7-5.8c-.17-.87-.45-1.74-.62-2.6-.13-.7-.21-1.4-.4-2.02-.14-.45-.28-.72-.4-1.07-.23-.62-.56-1.68-.74-2.42-.07-.32-.18-.7-.18-.88 0-.2.13-.39.15-.6.06-.92-.33-1.46-.48-2.12-.11-.48-.05-.75-.08-1.21a7.12 7.12 0 0 0-1.2-3.35c-.3-.47-.7-.81-1.07-1.2-.37-.39-.67-.91-.96-1.37-.98-1.53-2.09-2.3-3.7-3.15-.4-.21-1.24-.54-1.44-.89-.24-.4-.12-.97-.48-1.32-.13-.13-.38-.17-.58-.25-.16-.07-.5-.15-.6-.26-.16-.2-.21-.75-.22-1.1 0-.32.13-.67 0-.96-.08-.2-.46-.2-.5-.4-.06-.2.34-.75.47-.96.2-.32.43-.66.51-.91.15-.47.16-.9.3-1.29.13-.37.32-.69.51-1.06.59-1.13.51-1.79.67-2.7.15.07.13.46.25.71.11-.85-.17-1.83.15-2.57.14.25.23.63.19.92zM422 36.53a.83.83 0 0 1 1.12.66c-.47-.1-.84-.38-1.13-.66zm1.8 1.99c.33.15.44.98.18 1.28 0-.5-.27-.7-.19-1.28z"/>
  </g>
  <g fill="#125A9B">
    <path d="M49.65 14.13v5.19H48.2V6.82h3.42c1.54 0 2.67.3 3.4.89.73.58 1.1 1.47 1.1 2.65 0 1.65-.84 2.77-2.51 3.35L57 19.32h-1.72l-3.02-5.2h-2.61zm0-1.25h1.99c1.02 0 1.78-.2 2.26-.61s.71-1.02.71-1.84c0-.82-.24-1.42-.73-1.78-.48-.37-1.26-.55-2.34-.55h-1.9v4.78zM60.13 9.96v6.07c0 .76.18 1.33.52 1.7.35.39.9.57 1.64.57.98 0 1.7-.26 2.15-.8.45-.54.68-1.41.68-2.62V9.95h1.41v9.37h-1.17l-.2-1.26h-.08c-.29.47-.7.82-1.2 1.06-.52.25-1.11.37-1.77.37-1.14 0-2-.27-2.56-.81-.57-.54-.85-1.4-.85-2.6V9.96h1.43zM70.96 19.32h-1.42V6.02h1.42v13.3zM77.92 19.5a4.3 4.3 0 0 1-3.27-1.27 4.9 4.9 0 0 1-1.2-3.52c0-1.5.37-2.7 1.11-3.6a3.7 3.7 0 0 1 3-1.33c1.17 0 2.1.39 2.78 1.16.69.77 1.03 1.8 1.03 3.06v.9h-6.45c.03 1.1.3 1.93.83 2.5.53.57 1.27.85 2.23.85 1 0 2-.21 2.99-.63v1.26c-.5.22-.98.38-1.43.47-.44.1-.98.14-1.62.14zm-.38-8.53c-.75 0-1.35.25-1.8.74a3.4 3.4 0 0 0-.79 2.03h4.9c0-.9-.2-1.58-.6-2.06a2.1 2.1 0 0 0-1.7-.7zM88.06 9.78c.41 0 .79.04 1.12.1l-.2 1.32a4.86 4.86 0 0 0-1.02-.12c-.76 0-1.4.3-1.95.92-.54.61-.8 1.38-.8 2.3v5.02h-1.42V9.95h1.17l.16 1.74h.07c.34-.61.76-1.08 1.25-1.41.5-.33 1.03-.5 1.62-.5z"/>
  </g>
  <g fill="#125A9B">
    <path d="M230.82 19.32h-1.45v-5.88h-6.58v5.88h-1.45V6.82h1.45v5.32h6.58V6.83h1.45v12.49zM239.8 19.32l-.29-1.33h-.07c-.46.58-.93.98-1.4 1.19-.46.2-1.04.31-1.73.31-.93 0-1.66-.24-2.19-.72-.52-.48-.79-1.16-.79-2.04 0-1.9 1.51-2.88 4.54-2.97l1.59-.05v-.59c0-.73-.16-1.27-.47-1.62-.32-.35-.83-.53-1.52-.53-.78 0-1.66.24-2.65.72l-.44-1.09a6.71 6.71 0 0 1 3.17-.8c1.12 0 1.95.25 2.49.75.53.49.8 1.29.8 2.38v6.4h-1.05zm-3.21-1c.88 0 1.58-.24 2.08-.73.5-.48.76-1.16.76-2.03v-.85l-1.42.06a5.17 5.17 0 0 0-2.44.53c-.5.31-.75.8-.75 1.45 0 .51.15.9.47 1.17.3.27.74.4 1.3.4zM251.41 19.32l-1.71-5.5c-.11-.33-.31-1.1-.6-2.28h-.08c-.23 1-.43 1.76-.6 2.3l-1.76 5.48H245l-2.55-9.36h1.48l1.38 5.37c.32 1.23.5 2.06.55 2.49h.06a18.74 18.74 0 0 1 .67-2.49l1.72-5.37h1.54l1.67 5.37c.32.98.54 1.8.65 2.47h.07c.02-.2.08-.52.18-.95.1-.43.7-2.73 1.78-6.9h1.47l-2.58 9.37h-1.69zM263.14 19.32l-.28-1.33h-.07c-.47.58-.93.98-1.4 1.19-.46.2-1.04.31-1.74.31-.93 0-1.65-.24-2.18-.72-.53-.48-.8-1.16-.8-2.04 0-1.9 1.52-2.88 4.55-2.97l1.59-.05v-.59c0-.73-.16-1.27-.48-1.62-.31-.35-.82-.53-1.51-.53-.79 0-1.67.24-2.65.72l-.44-1.09a6.71 6.71 0 0 1 3.17-.8c1.12 0 1.94.25 2.48.75.54.49.81 1.29.81 2.38v6.4h-1.05zm-3.2-1c.88 0 1.57-.24 2.08-.73.5-.48.75-1.16.75-2.03v-.85l-1.42.06a5.17 5.17 0 0 0-2.44.53c-.5.31-.75.8-.75 1.45 0 .51.16.9.47 1.17.31.27.75.4 1.3.4zM267 7.42c0-.33.07-.57.23-.72a.83.83 0 0 1 .6-.22c.23 0 .42.07.59.23s.25.39.25.7c0 .33-.09.56-.25.72s-.36.24-.59.24c-.24 0-.44-.08-.6-.24s-.24-.4-.24-.71zm1.53 11.9h-1.42V9.95h1.42v9.37zM271.42 7.42c0-.33.08-.57.24-.72a.83.83 0 0 1 .6-.22c.22 0 .42.07.59.23.16.15.24.39.24.7 0 .33-.08.56-.24.72a.83.83 0 0 1-.6.24.82.82 0 0 1-.6-.24c-.15-.16-.23-.4-.23-.71zm1.54 11.9h-1.42V9.95h1.42v9.37z"/>
  </g>
  <g fill="#125A9B">
    <path d="M421.62 19.32l-4.24-11.07h-.07c.08.87.12 1.92.12 3.12v7.95h-1.34V6.82h2.19l3.95 10.31h.07l4-10.3h2.16v12.49h-1.45v-8.05c0-.92.04-1.92.12-3h-.07l-4.27 11.05h-1.17zM437.44 19.32l-.29-1.33h-.06c-.47.58-.94.98-1.4 1.19-.47.2-1.04.31-1.74.31-.93 0-1.65-.24-2.18-.72s-.8-1.16-.8-2.04c0-1.9 1.52-2.88 4.54-2.97l1.6-.05v-.59c0-.73-.17-1.27-.48-1.62-.32-.35-.82-.53-1.52-.53-.78 0-1.66.24-2.65.72l-.43-1.09a6.71 6.71 0 0 1 3.17-.8c1.11 0 1.94.25 2.48.75.54.49.8 1.29.8 2.38v6.4h-1.04zm-3.21-1c.88 0 1.58-.24 2.08-.73.5-.48.76-1.16.76-2.03v-.85l-1.42.06a5.17 5.17 0 0 0-2.44.53c-.5.31-.75.8-.75 1.45 0 .51.16.9.47 1.17.3.27.74.4 1.3.4zM447.82 19.32v-6.06c0-.76-.18-1.33-.53-1.7-.34-.38-.89-.57-1.63-.57-.98 0-1.7.26-2.15.8-.46.52-.69 1.4-.69 2.62v4.91h-1.41V9.95h1.15l.23 1.29h.07c.29-.46.7-.82 1.22-1.08s1.1-.38 1.75-.38c1.13 0 1.98.28 2.55.82.57.54.85 1.42.85 2.61v6.11h-1.41z"/>
  </g>
  <g fill="#4D4D4D">
    <path d="M17.74 196.05h-1.39v-8.9c0-.74.03-1.44.07-2.1l-.4.37c-.15.13-.82.69-2.03 1.67l-.75-.98 3.3-2.55h1.2v12.5zM27.57 184.15c0-.33.08-.57.23-.72a.83.83 0 0 1 .6-.22c.23 0 .43.07.6.23.16.15.24.39.24.7 0 .33-.08.56-.25.72a.83.83 0 0 1-.59.23.82.82 0 0 1-.6-.23c-.15-.16-.23-.4-.23-.71zm1.53 11.9H27.7v-9.36h1.41v9.36zM38.52 196.05V190c0-.76-.17-1.33-.52-1.7-.35-.38-.9-.57-1.63-.57-.98 0-1.7.26-2.16.8-.45.52-.68 1.4-.68 2.62v4.91h-1.42v-9.37h1.16l.23 1.29h.06c.3-.46.7-.82 1.23-1.07.52-.26 1.1-.38 1.75-.38 1.13 0 1.97.27 2.54.81.57.54.86 1.42.86 2.61v6.1h-1.42zM48.77 188.2c-.33 0-.67.1-1.04.3-.36.2-.7.44-1 .74v-1.27c.6-.62 1.34-.93 2.19-.93.4 0 .76.04 1.08.13.34.1.73.24 1.2.43.4.17.73.28 1 .36s.54.11.82.11c.31 0 .65-.1 1.02-.28.37-.19.7-.44.99-.75v1.28a2.8 2.8 0 0 1-2.17.94c-.4 0-.76-.05-1.1-.14-.33-.1-.72-.23-1.17-.42-.48-.2-.84-.32-1.09-.4-.24-.06-.48-.1-.73-.1zm0 3.48c-.31 0-.65.09-1 .27-.37.18-.71.43-1.04.76v-1.28a2.96 2.96 0 0 1 2.19-.94c.38 0 .73.04 1.05.12.32.08.73.22 1.23.43.44.2.79.32 1.05.4s.51.1.77.1c.3 0 .64-.1 1-.28.36-.19.7-.45 1-.77v1.29c-.57.62-1.29.93-2.16.93-.38 0-.73-.04-1.05-.12a9.58 9.58 0 0 1-1.22-.44c-.42-.17-.76-.3-1.02-.37s-.53-.1-.8-.1zM69.51 196.05h-8.2v-1.22l3.28-3.3c1-1.02 1.66-1.75 1.98-2.18.32-.43.56-.85.72-1.26.16-.41.24-.86.24-1.33 0-.67-.2-1.2-.6-1.58-.41-.4-.97-.59-1.69-.59a4.2 4.2 0 0 0-1.47.26c-.47.17-.98.48-1.55.93l-.76-.97a5.76 5.76 0 0 1 3.76-1.43c1.18 0 2.1.3 2.76.9.67.6 1 1.4 1 2.42 0 .8-.22 1.58-.66 2.35-.45.78-1.28 1.76-2.5 2.94l-2.73 2.68v.06h6.42v1.32zM71.75 195.15c0-.39.09-.68.26-.87.17-.2.42-.3.75-.3s.59.1.77.3c.19.2.28.48.28.87 0 .37-.1.65-.28.85s-.45.3-.77.3c-.3 0-.53-.1-.72-.27-.2-.18-.29-.47-.29-.88zM79.87 188.42a4.6 4.6 0 0 1 3.1.98 3.36 3.36 0 0 1 1.14 2.68c0 1.3-.42 2.3-1.24 3.04a4.93 4.93 0 0 1-3.4 1.1c-1.41 0-2.48-.22-3.22-.67v-1.37c.4.26.89.46 1.48.6.6.15 1.18.22 1.75.22 1 0 1.79-.23 2.34-.7.56-.48.83-1.16.83-2.06 0-1.74-1.06-2.61-3.2-2.61-.54 0-1.26.08-2.17.25l-.73-.47.47-5.85h6.2v1.3h-5l-.3 3.76c.65-.13 1.3-.2 1.95-.2zM94.77 193.18h-1.85v2.87h-1.36v-2.87h-6.08v-1.24l5.93-8.45h1.5v8.4h1.86v1.29zm-3.21-1.29v-4.15c0-.82.03-1.74.08-2.76h-.06c-.28.54-.53 1-.77 1.36l-3.9 5.55h4.65zM104.92 196.22a4 4 0 0 1-3.15-1.25 5.15 5.15 0 0 1-1.12-3.54c0-1.57.38-2.78 1.13-3.63s1.83-1.28 3.23-1.28a6.39 6.39 0 0 1 2.4.48l-.43 1.2a6.86 6.86 0 0 0-2-.43c-1.9 0-2.86 1.22-2.86 3.64 0 1.15.23 2.04.7 2.65.46.62 1.15.92 2.06.92a6.3 6.3 0 0 0 2.4-.5v1.26c-.63.32-1.41.48-2.36.48zM121.44 196.05v-6.1c0-.74-.16-1.3-.48-1.67-.32-.37-.81-.56-1.49-.56-.88 0-1.53.25-1.95.76-.42.5-.63 1.29-.63 2.34v5.23h-1.42v-6.1c0-.74-.16-1.3-.48-1.67-.32-.37-.82-.56-1.5-.56-.89 0-1.54.27-1.95.8-.41.53-.62 1.4-.62 2.62v4.91h-1.42v-9.37h1.15l.24 1.29h.06c.27-.46.65-.82 1.14-1.07a3.44 3.44 0 0 1 1.63-.39c1.47 0 2.42.53 2.87 1.6h.07a3 3 0 0 1 1.21-1.17 3.77 3.77 0 0 1 1.82-.43c1.06 0 1.85.28 2.38.82.52.54.79 1.41.79 2.61v6.1h-1.42z"/>
  </g>
  <g fill="#4D4D4D">
    <path d="M182.5 183.38c1.14 0 2.05.26 2.71.8.67.52 1 1.26 1 2.19 0 .61-.19 1.18-.57 1.68-.38.51-1 .97-1.83 1.39 1.01.48 1.74.99 2.16 1.52s.64 1.15.64 1.85a3.1 3.1 0 0 1-1.08 2.48c-.73.62-1.72.93-2.98.93-1.33 0-2.35-.29-3.07-.87a3.01 3.01 0 0 1-1.08-2.49c0-1.43.87-2.54 2.62-3.34a4.84 4.84 0 0 1-1.7-1.44 3.06 3.06 0 0 1-.5-1.73c0-.9.33-1.62 1-2.16s1.56-.81 2.68-.81zm-2.7 9.52c0 .68.24 1.21.72 1.6.47.38 1.14.57 2 .57.85 0 1.51-.2 1.98-.6.48-.4.71-.94.71-1.64a2 2 0 0 0-.66-1.48 6.8 6.8 0 0 0-2.33-1.25c-.85.37-1.46.77-1.84 1.21-.38.44-.58.97-.58 1.59zm2.69-8.37c-.72 0-1.27.17-1.68.51-.4.35-.6.8-.6 1.37 0 .53.16.98.5 1.35.34.38.96.75 1.86 1.13.82-.34 1.4-.7 1.73-1.1.34-.4.51-.85.51-1.38 0-.57-.2-1.03-.62-1.37a2.6 2.6 0 0 0-1.7-.5zM196.66 189.79c0 2.16-.35 3.77-1.03 4.84-.68 1.06-1.72 1.6-3.12 1.6a3.42 3.42 0 0 1-3.07-1.64c-.7-1.1-1.05-2.7-1.05-4.8 0-2.18.34-3.8 1.02-4.85.68-1.05 1.71-1.58 3.1-1.58 1.36 0 2.39.55 3.1 1.65s1.04 2.7 1.04 4.78zm-6.83 0c0 1.82.21 3.14.64 3.97.43.83 1.1 1.24 2.04 1.24.95 0 1.63-.42 2.06-1.26.42-.84.63-2.16.63-3.95 0-1.8-.21-3.11-.63-3.95a2.15 2.15 0 0 0-2.06-1.25c-.93 0-1.61.41-2.04 1.24-.43.82-.64 2.14-.64 3.96zM215.51 196.05v-6.1c0-.74-.16-1.3-.47-1.67-.32-.37-.82-.56-1.5-.56-.87 0-1.53.25-1.95.76-.42.5-.63 1.29-.63 2.34v5.23h-1.42v-6.1c0-.74-.16-1.3-.48-1.67-.32-.37-.82-.56-1.5-.56-.88 0-1.53.27-1.95.8-.4.53-.62 1.4-.62 2.62v4.91h-1.41v-9.37h1.15l.23 1.29h.07c.27-.46.64-.82 1.13-1.07a3.44 3.44 0 0 1 1.64-.39c1.46 0 2.42.53 2.87 1.6h.06a3 3 0 0 1 1.22-1.17 3.77 3.77 0 0 1 1.81-.43c1.06 0 1.85.28 2.38.82.53.54.79 1.41.79 2.61v6.1h-1.42zM219.74 184.15c0-.33.08-.57.23-.72a.83.83 0 0 1 .6-.22c.23 0 .43.07.6.23.16.15.24.39.24.7 0 .33-.08.56-.25.72a.83.83 0 0 1-.59.23.82.82 0 0 1-.6-.23c-.16-.16-.23-.4-.23-.71zm1.53 11.9h-1.42v-9.36h1.42v9.36zM230.2 188.2c-.33 0-.68.1-1.04.3-.36.2-.7.44-1 .74v-1.27c.6-.62 1.33-.93 2.19-.93.39 0 .75.04 1.08.13.33.1.73.24 1.2.43.4.17.72.28 1 .36s.54.11.82.11c.31 0 .65-.1 1.02-.28.37-.19.7-.44.99-.75v1.28a2.8 2.8 0 0 1-2.18.94c-.39 0-.75-.05-1.09-.14-.33-.1-.73-.23-1.18-.42-.48-.2-.84-.32-1.08-.4-.24-.06-.49-.1-.74-.1zm0 3.48c-.31 0-.65.09-1.01.27-.36.18-.7.43-1.03.76v-1.28a2.96 2.96 0 0 1 2.19-.94c.38 0 .73.04 1.05.12.32.08.73.22 1.23.43.44.2.78.32 1.04.4s.52.1.78.1c.3 0 .63-.1 1-.28.36-.19.7-.45 1-.77v1.29c-.57.62-1.3.93-2.17.93-.38 0-.73-.04-1.04-.12a9.58 9.58 0 0 1-1.23-.44c-.41-.17-.75-.3-1.01-.37s-.53-.1-.8-.1zM247.98 196.05h-1.38v-8.9c0-.74.02-1.44.07-2.1l-.4.37-2.04 1.67-.75-.98 3.3-2.55h1.2v12.5zM260.95 196.05h-8.21v-1.22l3.29-3.3c1-1.02 1.66-1.75 1.98-2.18.32-.43.56-.85.72-1.26.15-.41.23-.86.23-1.33 0-.67-.2-1.2-.6-1.58-.4-.4-.97-.59-1.69-.59a4.2 4.2 0 0 0-1.47.26c-.46.17-.98.48-1.55.93l-.75-.97a5.76 5.76 0 0 1 3.76-1.43c1.17 0 2.1.3 2.76.9.66.6 1 1.4 1 2.42 0 .8-.22 1.58-.67 2.35-.44.78-1.27 1.76-2.5 2.94l-2.73 2.68v.06h6.43v1.32zM266.88 183.38c1.14 0 2.04.26 2.7.8.67.52 1 1.26 1 2.19 0 .61-.18 1.18-.57 1.68-.38.51-.99.97-1.82 1.39 1 .48 1.73.99 2.16 1.52.42.54.64 1.15.64 1.85a3.1 3.1 0 0 1-1.09 2.48c-.72.62-1.71.93-2.97.93-1.33 0-2.36-.29-3.08-.87a3.02 3.02 0 0 1-1.07-2.49c0-1.43.87-2.54 2.61-3.34a4.82 4.82 0 0 1-1.7-1.44 3.06 3.06 0 0 1-.5-1.73c0-.9.33-1.62 1-2.16s1.56-.81 2.69-.81zm-2.7 9.52c0 .68.23 1.21.71 1.6.48.38 1.14.57 2 .57.85 0 1.51-.2 1.99-.6.47-.4.7-.94.7-1.64a2 2 0 0 0-.66-1.48 6.8 6.8 0 0 0-2.32-1.25c-.85.37-1.47.77-1.85 1.21-.38.44-.57.97-.57 1.59zm2.68-8.37c-.71 0-1.27.17-1.68.51-.4.35-.6.8-.6 1.37 0 .53.17.98.5 1.35s.96.75 1.87 1.13c.8-.34 1.39-.7 1.73-1.1.33-.4.5-.85.5-1.38 0-.57-.2-1.03-.62-1.37-.4-.34-.98-.5-1.7-.5zM273.2 195.15c0-.39.08-.68.25-.87.18-.2.43-.3.75-.3.33 0 .59.1.77.3s.28.48.28.87c0 .37-.1.65-.28.85s-.45.3-.77.3c-.3 0-.53-.1-.72-.27-.2-.18-.29-.47-.29-.88zM281.54 183.38c1.14 0 2.04.26 2.7.8.68.52 1 1.26 1 2.19 0 .61-.18 1.18-.56 1.68-.38.51-1 .97-1.83 1.39 1.01.48 1.73.99 2.16 1.52.43.54.64 1.15.64 1.85a3.1 3.1 0 0 1-1.08 2.48c-.73.62-1.72.93-2.98.93-1.33 0-2.36-.29-3.07-.87a3.01 3.01 0 0 1-1.08-2.49c0-1.43.87-2.54 2.61-3.34a4.84 4.84 0 0 1-1.69-1.44 3.06 3.06 0 0 1-.51-1.73c0-.9.33-1.62 1-2.16s1.57-.81 2.69-.81zm-2.7 9.52c0 .68.24 1.21.71 1.6.48.38 1.15.57 2 .57.86 0 1.52-.2 1.99-.6s.7-.94.7-1.64a2 2 0 0 0-.66-1.48 6.8 6.8 0 0 0-2.32-1.25c-.85.37-1.47.77-1.85 1.21-.38.44-.57.97-.57 1.59zm2.68-8.37c-.71 0-1.27.17-1.67.51s-.6.8-.6 1.37c0 .53.16.98.5 1.35.33.38.95.75 1.86 1.13.81-.34 1.39-.7 1.73-1.1.34-.4.5-.85.5-1.38 0-.57-.2-1.03-.61-1.37-.42-.34-.98-.5-1.7-.5zM294 191.26c.25-.35.63-.8 1.13-1.37l3.02-3.2h1.68l-3.79 3.99 4.06 5.37h-1.72l-3.3-4.42-1.07.92v3.5h-1.4v-13.3h1.4v7.06c0 .3-.02.8-.07 1.45h.07zM313.73 196.05v-6.1c0-.74-.16-1.3-.48-1.67-.32-.37-.81-.56-1.49-.56-.88 0-1.53.25-1.95.76-.42.5-.64 1.29-.64 2.34v5.23h-1.41v-6.1c0-.74-.16-1.3-.48-1.67-.32-.37-.82-.56-1.5-.56-.89 0-1.54.27-1.95.8-.41.53-.62 1.4-.62 2.62v4.91h-1.42v-9.37h1.16l.23 1.29h.06c.27-.46.65-.82 1.14-1.07a3.43 3.43 0 0 1 1.63-.39c1.47 0 2.42.53 2.87 1.6h.07c.28-.5.69-.88 1.22-1.17a3.77 3.77 0 0 1 1.8-.43c1.07 0 1.86.28 2.39.82.52.54.79 1.41.79 2.61v6.1h-1.42z"/>
  </g>
  <g fill="#4D4D4D">
    <path d="M355.33 188.42a4.6 4.6 0 0 1 3.11.98 3.36 3.36 0 0 1 1.13 2.68c0 1.3-.4 2.3-1.23 3.04a4.92 4.92 0 0 1-3.4 1.1c-1.41 0-2.49-.22-3.23-.67v-1.37c.4.26.9.46 1.49.6.6.15 1.18.22 1.75.22 1 0 1.78-.23 2.34-.7.55-.48.83-1.16.83-2.06 0-1.74-1.07-2.61-3.2-2.61-.55 0-1.27.08-2.17.25l-.74-.47.47-5.85h6.21v1.3h-5l-.31 3.76a9.8 9.8 0 0 1 1.95-.2zM370.85 187.79h-2.38v8.26h-1.42v-8.26h-1.68v-.64l1.68-.52v-.52c0-2.3 1-3.45 3.02-3.45.5 0 1.07.1 1.74.3l-.37 1.14a4.65 4.65 0 0 0-1.4-.27c-.53 0-.93.18-1.19.54-.25.35-.38.92-.38 1.71v.6h2.38v1.1zM375.59 195.05a4.67 4.67 0 0 0 1.28-.17v1.09a5.16 5.16 0 0 1-1.49.26c-1.81 0-2.72-.96-2.72-2.87v-5.57h-1.34v-.68l1.34-.6.6-2h.82v2.18h2.72v1.1h-2.72v5.51c0 .56.14 1 .4 1.3.27.3.64.45 1.1.45zM390.85 188.9c0 4.88-1.9 7.32-5.68 7.32-.66 0-1.18-.06-1.57-.17v-1.22c.46.15.98.22 1.56.22 1.36 0 2.4-.42 3.1-1.27.7-.84 1.07-2.14 1.14-3.89h-.1c-.32.47-.74.83-1.25 1.08-.52.25-1.1.37-1.76.37-1.1 0-1.98-.33-2.63-.99a3.78 3.78 0 0 1-.97-2.77c0-1.3.36-2.32 1.09-3.07a3.8 3.8 0 0 1 2.86-1.13c.85 0 1.6.22 2.23.65s1.12 1.07 1.47 1.9.5 1.83.5 2.96zm-4.2-4.3c-.82 0-1.45.26-1.9.78a3.28 3.28 0 0 0-.66 2.19c0 .82.2 1.46.61 1.93s1.04.7 1.87.7c.52 0 1-.1 1.44-.3s.78-.5 1.03-.87c.25-.36.37-.75.37-1.15 0-.6-.11-1.15-.35-1.65-.23-.51-.56-.91-.98-1.2s-.9-.44-1.44-.44zM397.72 184.15c0-.33.08-.57.24-.72a.83.83 0 0 1 .6-.22c.22 0 .42.07.59.23.16.15.24.39.24.7 0 .33-.08.56-.25.72a.82.82 0 0 1-.59.23.82.82 0 0 1-.6-.23c-.15-.16-.23-.4-.23-.71zm1.54 11.9h-1.42v-9.36h1.42v9.36zM408.67 196.05V190c0-.76-.17-1.33-.52-1.7-.35-.38-.9-.57-1.63-.57-.98 0-1.7.26-2.15.8-.46.52-.69 1.4-.69 2.62v4.91h-1.42v-9.37h1.16l.23 1.29h.06c.3-.46.7-.82 1.23-1.07.52-.26 1.1-.38 1.75-.38 1.13 0 1.98.27 2.55.81.56.54.85 1.42.85 2.61v6.1h-1.42zM418.92 188.2c-.33 0-.67.1-1.04.3-.36.2-.7.44-1 .74v-1.27c.6-.62 1.34-.93 2.2-.93.39 0 .75.04 1.08.13.33.1.73.24 1.2.43.39.17.72.28.99.36.27.07.54.11.82.11.32 0 .66-.1 1.02-.28.37-.19.7-.44 1-.75v1.28a2.8 2.8 0 0 1-2.18.94c-.4 0-.76-.05-1.1-.14-.33-.1-.72-.23-1.17-.42-.48-.2-.84-.32-1.08-.4s-.5-.1-.74-.1zm0 3.48c-.31 0-.65.09-1 .27-.37.18-.71.43-1.04.76v-1.28a2.97 2.97 0 0 1 2.2-.94c.37 0 .72.04 1.04.12.32.08.73.22 1.23.43.44.2.8.32 1.05.4s.52.1.77.1c.3 0 .64-.1 1-.28.37-.19.7-.45 1.01-.77v1.29c-.57.62-1.3.93-2.17.93-.38 0-.73-.04-1.05-.12a9.53 9.53 0 0 1-1.22-.44c-.42-.17-.76-.3-1.02-.37-.25-.07-.52-.1-.8-.1zM436.7 196.05h-1.38v-8.9c0-.74.03-1.44.07-2.1l-.4.37-2.03 1.67-.75-.98 3.3-2.55h1.2v12.5zM443.04 196.05l5.18-11.19h-6.81v-1.3h8.31v1.13l-5.1 11.36h-1.58zM455.37 188.42a4.6 4.6 0 0 1 3.1.98 3.36 3.36 0 0 1 1.14 2.68c0 1.3-.41 2.3-1.24 3.04a4.93 4.93 0 0 1-3.4 1.1c-1.4 0-2.48-.22-3.22-.67v-1.37c.4.26.9.46 1.48.6.6.15 1.18.22 1.76.22 1 0 1.78-.23 2.33-.7.56-.48.84-1.16.84-2.06 0-1.74-1.07-2.61-3.2-2.61-.55 0-1.27.08-2.18.25l-.73-.47.47-5.85h6.2v1.3h-4.99l-.31 3.76c.65-.13 1.3-.2 1.95-.2zM461.92 195.15c0-.39.08-.68.26-.87s.42-.3.74-.3c.33 0 .6.1.78.3s.27.48.27.87c0 .37-.09.65-.28.85a1 1 0 0 1-.77.3c-.29 0-.53-.1-.72-.27-.19-.18-.28-.47-.28-.88zM474.34 196.05h-8.21v-1.22l3.29-3.3c1-1.02 1.66-1.75 1.98-2.18.32-.43.56-.85.72-1.26.16-.41.24-.86.24-1.33 0-.67-.2-1.2-.6-1.58-.41-.4-.98-.59-1.7-.59a4.2 4.2 0 0 0-1.47.26c-.46.17-.98.48-1.55.93l-.75-.97a5.76 5.76 0 0 1 3.76-1.43c1.17 0 2.1.3 2.76.9.67.6 1 1.4 1 2.42 0 .8-.22 1.58-.67 2.35-.44.78-1.27 1.76-2.5 2.94l-2.73 2.68v.06h6.43v1.32zM476.28 190.71c0-2.45.48-4.29 1.43-5.5.96-1.22 2.37-1.83 4.24-1.83.64 0 1.15.05 1.52.16v1.22a4.85 4.85 0 0 0-1.5-.21c-1.35 0-2.37.42-3.08 1.25-.7.84-1.09 2.15-1.16 3.94h.1c.63-.98 1.62-1.47 2.98-1.47 1.12 0 2 .34 2.65 1.01.65.68.97 1.6.97 2.76 0 1.3-.35 2.32-1.06 3.07a3.79 3.79 0 0 1-2.88 1.11 3.7 3.7 0 0 1-3.07-1.45c-.76-.98-1.14-2.33-1.14-4.06zm4.2 4.3c.8 0 1.43-.25 1.88-.76.45-.5.67-1.24.67-2.2 0-.83-.2-1.48-.62-1.95s-1.04-.71-1.87-.71c-.5 0-.98.1-1.4.31-.43.21-.77.5-1.03.87-.25.37-.38.76-.38 1.16 0 .58.12 1.13.34 1.64.23.5.56.9.97 1.2.42.3.9.45 1.44.45zM495.08 196.22a4 4 0 0 1-3.15-1.25 5.15 5.15 0 0 1-1.12-3.54c0-1.57.38-2.78 1.14-3.63s1.83-1.28 3.22-1.28a6.39 6.39 0 0 1 2.41.48l-.43 1.2a6.93 6.93 0 0 0-2-.43c-1.91 0-2.86 1.22-2.86 3.64 0 1.15.23 2.04.7 2.65.46.62 1.14.92 2.06.92a6.3 6.3 0 0 0 2.4-.5v1.26c-.63.32-1.42.48-2.37.48zM511.6 196.05v-6.1c0-.74-.15-1.3-.48-1.67-.31-.37-.8-.56-1.48-.56-.88 0-1.54.25-1.96.76-.42.5-.63 1.29-.63 2.34v5.23h-1.42v-6.1c0-.74-.16-1.3-.48-1.67-.32-.37-.81-.56-1.5-.56-.88 0-1.53.27-1.94.8-.42.53-.62 1.4-.62 2.62v4.91h-1.42v-9.37h1.15l.23 1.29h.07c.27-.46.64-.82 1.13-1.07a3.44 3.44 0 0 1 1.64-.39c1.46 0 2.42.53 2.87 1.6h.07c.28-.5.68-.88 1.21-1.17a3.77 3.77 0 0 1 1.81-.43c1.06 0 1.86.28 2.38.82s.8 1.41.8 2.61v6.1h-1.43z"/>
  </g>
  <path fill="none" stroke="#4D4D4D" stroke-width=".75" d="M447.93 111.08v61.35M447.93 33.57v64.42M450.8 33.57h-5.74M450.8 172.43h-5.74"/>
  <g fill="#4D4D4D">
    <path d="M443.27 103.56c.77 0 1.37.19 1.81.57.44.38.66.9.66 1.56 0 .76-.24 1.35-.72 1.78-.48.42-1.14.64-1.98.64-.82 0-1.45-.13-1.88-.4v-.8c.23.16.52.27.86.36.35.08.69.13 1.03.13.58 0 1.03-.14 1.36-.42s.48-.67.48-1.2c0-1-.62-1.52-1.87-1.52-.31 0-.73.05-1.26.15l-.43-.28.27-3.4h3.63v.76h-2.92l-.18 2.19c.38-.08.76-.12 1.14-.12zM447.87 100.73l.07.1a16.06 16.06 0 0 1-.88 2.39h-.6c.22-.94.4-1.78.5-2.5h.9zM453.35 103.83c0 2.85-1.1 4.28-3.31 4.28-.39 0-.7-.03-.92-.1v-.71c.27.08.57.13.9.13.8 0 1.4-.25 1.82-.74.4-.5.62-1.25.66-2.27h-.06c-.18.27-.42.48-.73.63-.3.14-.64.21-1.02.21-.64 0-1.15-.19-1.53-.57a2.2 2.2 0 0 1-.57-1.62c0-.76.21-1.35.64-1.8.42-.43.97-.65 1.67-.65.5 0 .92.13 1.3.38.37.26.65.63.85 1.11s.3 1.06.3 1.72zm-2.45-2.5c-.48 0-.85.15-1.1.46-.26.3-.4.73-.4 1.27 0 .48.13.86.36 1.13.24.27.6.41 1.1.41.3 0 .58-.06.83-.18s.45-.3.6-.5.22-.44.22-.67c0-.35-.07-.67-.2-.97-.14-.3-.33-.53-.57-.7a1.44 1.44 0 0 0-.84-.25zM455.43 100.73l.08.1a16.06 16.06 0 0 1-.88 2.39h-.61c.23-.94.4-1.78.5-2.5h.91zm1.84 0l.07.1a13.84 13.84 0 0 1-.88 2.4h-.62a32.44 32.44 0 0 0 .52-2.5h.91z"/>
  </g>
</svg>